PathFileType	4	(x/y/z)	S02_PSF_T03
DataRate	CameraRate	NumFrames	NumMarkers	Units	OrigDataRate	OrigDataStartFrame	OrigNumFrames
240	240	4	51	mm	240	345	394
Frame#	Time	Sternum			R.Acromium			L.Acromium			Top.Head			R.ASIS			L.ASIS			R.PSIS			L.PSIS			R.Great.Tro			L.Great.Tro			R.Iliac.Crest			L.Iliac.Crest			V.Sacral			R.Thigh.Upper.Post			R.Thigh.Lower.Ant			R.Thigh.Lower.Post			R.Thigh.Upper.Ant			R.Knee.Lat			R.Knee.Med			R.Shank.Upper.Post			R.Shank.Lower.Ant			R.Shank.Lower.Post			R.Shank.Upper.Ant			R.Ankle.Lat			R.Ankle.Med			R.Heel.Upper			R.Heel.Med			R.Heel.Lat			R.Toe.Lat			R.Toe.Med			R.Toe.Tip			L.Thigh.Upper.Post			L.Thigh.Lower.Ant			L.Thigh.Lower.Post			L.Thigh.Upper.Ant			L.Knee.Lat			L.Knee.Med			L.Shank.Upper.Post			L.Shank.Lower.Ant			L.Shank.Lower.Post			L.Shank.Upper.Ant			L.Ankle.Lat			L.Ankle.Med			L.Heel.Upper			L.Heel.Med			L.Heel.Lat			L.Toe.Lat			L.Toe.Med			L.Toe.Tip			Cervical.Spine			Back			
		X1	Y1	Z1	X2	Y2	Z2	X3	Y3	Z3	X4	Y4	Z4	X5	Y5	Z5	X6	Y6	Z6	X7	Y7	Z7	X8	Y8	Z8	X9	Y9	Z9	X10	Y10	Z10	X11	Y11	Z11	X12	Y12	Z12	X13	Y13	Z13	X14	Y14	Z14	X15	Y15	Z15	X16	Y16	Z16	X17	Y17	Z17	X18	Y18	Z18	X19	Y19	Z19	X20	Y20	Z20	X21	Y21	Z21	X22	Y22	Z22	X23	Y23	Z23	X24	Y24	Z24	X25	Y25	Z25	X26	Y26	Z26	X27	Y27	Z27	X28	Y28	Z28	X29	Y29	Z29	X30	Y30	Z30	X31	Y31	Z31	X32	Y32	Z32	X33	Y33	Z33	X34	Y34	Z34	X35	Y35	Z35	X36	Y36	Z36	X37	Y37	Z37	X38	Y38	Z38	X39	Y39	Z39	X40	Y40	Z40	X41	Y41	Z41	X42	Y42	Z42	X43	Y43	Z43	X44	Y44	Z44	X45	Y45	Z45	X46	Y46	Z46	X47	Y47	Z47	X48	Y48	Z48	X49	Y49	Z49	X50	Y50	Z50	X51	Y51	Z51	

345	1.4333	455.8	1104.5	299.88	340.36	1342.6	432.83	365.48	1339.5	140.07	418.42	1621.8	272.73	426.63	946.69	396.1	436.51	927.01	188.74	218.02	969.24	347.04	211.2	973.42	273.63	379.01	816.51	498.49	311.03	826.31	104.98	323.27	983.95	458.32	311.45	972.1	126.75	190.68	922.32	305.18	452.36	632.64	490.65	533.75	580.08	458.52	470.79	545.78	471.13	511.13	665.53	474.38	511.59	480.61	456.96	522.17	469.07	314.93	466.31	267.87	432.99	553.94	202.27	431.82	487.37	198.24	426.96	537.58	268.79	445.27	523.64	108.01	420.61	546.88	127.58	340.78	477.72	83.844	353.25	501.6	56.142	327.77	478.93	50.603	387.56	626.43	64.125	461.72	678.47	71.648	365.55	708.08	103.52	429.62	244.14	619.75	144.79	306.47	529.24	153.99	229.32	533.21	170.36	314.62	621.26	129.29	275.1	452.51	167.2	270.76	456.57	306.41	171.22	292.02	178.78	232.62	199.91	197.15	162.73	220.74	198.86	234.1	274.18	177.42	180.3	102.13	218.42	193.25	100.91	298.09	119.89	70.295	251.81	128.38	44.206	285.41	125.19	42.577	223.76	291.17	34.718	193.62	313.03	45.107	303.3	373.24	59.066	256.26	280.43	1401.2	279.05	200.76	1151	282.47
346	1.4375	461.05	1103.4	300.03	345.32	1341.6	433.1	371.06	1338.6	140.39	423.52	1620.8	273.36	432.24	945.67	396.17	441.68	925.79	188.78	223.51	968.24	347.45	216.49	972.42	274.05	385.06	815.46	498.53	315.58	825.82	105	328.87	982.98	458.54	316.51	971.02	126.96	196.06	921.29	305.66	458.16	631.43	490.03	538.93	578.57	456.94	476.13	544.48	470.6	516.68	664.14	472.8	516.96	479.53	456.08	526.09	467.54	313.61	477.31	265.81	432.75	566.94	202.82	431.93	500.46	196.81	426.91	548.62	268.9	445.21	539.49	107.42	420.83	562.19	127.34	341	494.39	81.617	353.51	519.06	54.564	328.11	496.49	48.556	387.88	643.45	66.574	462.13	695.38	75.338	366.07	723.99	108.26	430.06	247.39	619.78	144.7	309.04	528.82	153.98	231.9	533.35	170.28	317.89	620.77	129.28	277.04	452.24	167.11	272.35	456.36	306.36	172.25	292.23	178.69	233.26	199.85	197.11	163.49	221.06	198.76	235.1	274.12	177.35	180.42	102.26	218.45	193.4	101.01	298.1	119.94	70.377	251.85	128.42	44.269	285.44	125.21	42.664	223.79	291.18	34.665	193.61	313.07	45.07	303.3	373.29	58.969	256.23	285.74	1400.2	279.22	206.05	1150	282.4
347	1.4417	466.32	1102.2	300.2	350.31	1340.5	433.38	376.65	1337.6	140.75	428.63	1619.8	274	437.88	944.6	396.25	446.86	924.5	188.83	229.03	967.21	347.85	221.8	971.39	274.46	391.08	814.3	498.54	320.14	825.28	105.04	334.49	981.94	458.76	321.6	969.91	127.16	201.45	920.25	306.12	463.95	630.16	489.44	544.08	576.99	455.38	481.44	543.1	470.13	522.2	662.68	471.2	522.29	478.39	455.27	529.95	465.93	312.32	488.17	263.87	432.52	579.7	203.47	432	513.34	195.53	426.84	559.48	269.07	445.15	555.05	107.03	420.98	577.18	127.3	341.16	510.77	79.635	353.72	536.18	53.252	328.39	513.76	46.772	388.15	660.13	69.184	462.41	711.86	79.189	366.44	739.48	113.11	430.33	250.74	619.76	144.62	311.71	528.35	153.97	234.6	533.44	170.2	321.26	620.24	129.27	279.11	451.94	167.04	274.08	456.14	306.33	173.39	292.44	178.6	233.94	199.77	197.09	164.3	221.37	198.67	236.17	274.02	177.3	180.56	102.39	218.49	193.54	101.11	298.12	119.98	70.46	251.89	128.46	44.332	285.47	125.23	42.751	223.81	291.19	34.612	193.6	313.11	45.033	303.31	373.34	58.869	256.21	291.05	1399.2	279.42	211.34	1149	282.35
348	1.4458	471.61	1101	300.39	355.32	1339.4	433.68	382.25	1336.6	141.13	433.73	1618.7	274.66	443.54	943.46	396.34	452.06	923.17	188.87	234.58	966.15	348.26	227.14	970.35	274.87	397.09	813.04	498.53	324.71	824.7	105.08	340.14	980.84	459	326.71	968.76	127.35	206.85	919.19	306.58	469.74	628.85	488.89	549.2	575.35	453.84	486.75	541.67	469.72	527.68	661.17	469.58	527.6	477.2	454.54	533.77	464.23	311.09	498.88	262.05	432.31	592.19	204.19	432.01	525.99	194.4	426.75	570.14	269.29	445.09	570.29	106.82	421.06	591.81	127.43	341.25	526.82	77.885	353.89	552.93	52.185	328.6	530.69	45.234	388.36	676.41	71.921	462.56	727.87	83.162	366.65	754.53	118.02	430.44	254.18	619.68	144.54	314.5	527.85	153.97	237.41	533.47	170.15	324.71	619.67	129.26	281.32	451.59	166.98	275.95	455.89	306.31	174.63	292.65	178.51	234.69	199.67	197.07	165.19	221.68	198.57	237.34	273.91	177.25	180.71	102.53	218.54	193.69	101.22	298.14	120.02	70.544	251.92	128.5	44.399	285.5	125.25	42.837	223.84	291.19	34.559	193.59	313.15	44.994	303.31	373.4	58.765	256.18	296.37	1398.1	279.63	216.64	1147.9	282.31
